<?xml version="1.0" encoding="utf-8"?>
<!-- Generator: Adobe Illustrator 16.0.0, SVG Export Plug-In . SVG Version: 6.00 Build 0)  -->
<!DOCTYPE svg PUBLIC "-//W3C//DTD SVG 1.1//EN" "http://www.w3.org/Graphics/SVG/1.1/DTD/svg11.dtd">
<svg version="1.1" id="Layer_1" xmlns="http://www.w3.org/2000/svg" xmlns:xlink="http://www.w3.org/1999/xlink" x="0px" y="0px"
	 width="20px" height="20px" viewBox="0 0 20 20" enable-background="new 0 0 20 20" xml:space="preserve">
<g>
	<g>
		<linearGradient id="SVGID_1_" gradientUnits="userSpaceOnUse" x1="8.4912" y1="9.8555" x2="5.2664" y2="13.0803">
			<stop  offset="0" style="stop-color:#00C200"/>
			<stop  offset="1" style="stop-color:#009600"/>
		</linearGradient>
		<polygon fill="url(#SVGID_1_)" points="5.224,6.589 2,9.813 8.533,16.346 8.533,9.896 		"/>
	</g>
	<g>
		<linearGradient id="SVGID_2_" gradientUnits="userSpaceOnUse" x1="10.0425" y1="8.3872" x2="13.2673" y2="11.612">
			<stop  offset="0" style="stop-color:#00C200"/>
			<stop  offset="1" style="stop-color:#009600"/>
		</linearGradient>
		<polygon fill="url(#SVGID_2_)" points="14.776,3.654 8.533,9.896 8.533,16.346 18,6.878 		"/>
	</g>
	<g>
		<path fill="#009600" d="M14.776,4.702l2.176,2.176l-8.419,8.42L3.048,9.813l2.176-2.178l2.785,2.785l0.524,0.523l0.524-0.523
			L14.776,4.702 M14.776,3.654L8.533,9.896L5.224,6.589L2,9.813l6.533,6.532L18,6.878L14.776,3.654L14.776,3.654z"/>
	</g>
</g>
<g>
	<path fill="#808080" d="M19,1v18H1V1H19 M20,0H0v20h20V0L20,0z"/>
</g>
</svg>
