<?xml version="1.0" encoding="utf-8"?>
<!-- Generator: Adobe Illustrator 16.0.0, SVG Export Plug-In . SVG Version: 6.00 Build 0)  -->
<!DOCTYPE svg PUBLIC "-//W3C//DTD SVG 1.1//EN" "http://www.w3.org/Graphics/SVG/1.1/DTD/svg11.dtd">
<svg version="1.1" id="Слой_1" xmlns="http://www.w3.org/2000/svg" xmlns:xlink="http://www.w3.org/1999/xlink" x="0px" y="0px"
	 width="160px" height="45px" viewBox="0 0 160 45" enable-background="new 0 0 160 45" xml:space="preserve">
<g id="Слой_2">
</g>
<g id="Layer_1">
	<g>
		<polygon fill="#FFFFFF" points="30.444,18.269 30.444,16.236 28.415,16.238 28.415,18.269 28.415,22.326 26.385,22.326 
			26.385,14.208 22.326,14.208 22.326,20.296 20.297,20.296 20.296,12.179 16.237,12.179 16.237,20.296 14.207,20.296 14.207,2.029 
			10.148,2.029 10.148,24.355 8.118,24.355 8.118,22.326 6.089,22.326 6.089,20.296 2.029,20.296 2.029,24.355 4.059,24.355 
			4.059,26.387 6.089,26.385 6.089,30.443 8.118,30.443 8.118,34.503 10.148,34.503 10.148,38.563 12.178,38.563 12.178,42.621 
			13.712,42.621 13.712,42.621 17.772,42.621 17.772,42.621 20.297,42.621 20.297,42.621 24.356,42.621 24.355,42.621 
			28.415,42.621 28.415,38.563 30.444,38.563 30.444,34.503 30.444,32.476 32.474,32.476 32.474,28.416 32.474,18.269 		"/>
		<g>
			<polygon fill="#C4161C" points="2.029,20.296 6.089,20.296 6.089,18.268 0,18.268 0,24.355 2.029,24.355 			"/>
			<rect x="2.03" y="24.355" fill="#C4161C" width="2.029" height="2.028"/>
			<polygon fill="#C4161C" points="6.089,26.387 4.059,26.385 4.059,30.443 6.089,30.443 			"/>
			<polygon fill="#C4161C" points="8.118,30.443 6.089,30.443 6.089,34.503 8.118,34.504 			"/>
			<polygon fill="#C4161C" points="10.148,34.503 8.118,34.504 8.118,38.563 10.148,38.563 			"/>
			<polygon fill="#C4161C" points="28.415,42.621 12.178,42.621 12.177,38.563 10.148,38.563 10.148,44.652 30.444,44.652 
				30.444,38.563 28.415,38.563 			"/>
			<polygon fill="#C4161C" points="30.444,38.563 32.474,38.563 32.474,32.476 30.444,32.476 			"/>
			<polygon fill="#C4161C" points="34.504,18.268 32.474,18.268 32.474,32.476 34.504,32.476 			"/>
			<rect x="30.444" y="16.236" fill="#C4161C" width="2.03" height="2.03"/>
			<polygon fill="#C4161C" points="26.385,22.326 28.415,22.326 28.415,16.236 30.444,16.238 30.444,14.208 26.385,14.208 			"/>
			<polygon fill="#C4161C" points="20.297,20.296 22.326,20.296 22.326,14.208 26.385,14.208 26.385,12.179 20.297,12.179 			"/>
			<polygon fill="#C4161C" points="14.207,20.296 16.237,20.296 16.237,12.179 20.297,12.179 20.297,10.148 16.237,10.148 
				16.237,2.029 14.207,2.029 			"/>
			<polygon fill="#C4161C" points="8.118,22.326 8.118,24.355 10.148,24.355 10.148,2.029 8.118,2.029 8.118,20.296 6.089,20.296 
				6.089,22.326 			"/>
			<polygon fill="#C4161C" points="14.207,2.029 14.207,0 10.148,0 10.148,2.029 			"/>
		</g>
	</g>
	<g>
		<path d="M51.004,10.31v13.269h-2.58V12.554h-2.637v11.022h-2.58V10.31H51.004z"/>
		<path d="M56.245,10.506c0.728-0.157,1.711-0.256,2.696-0.256c1.535,0,2.735,0.217,3.603,1.023
			c0.787,0.688,1.143,1.793,1.143,2.914c0,1.438-0.434,2.439-1.122,3.188c-0.827,0.866-2.166,1.261-3.229,1.261
			c-0.177,0-0.354,0-0.512,0v4.939h-2.578V10.506L56.245,10.506z M58.822,16.529c0.118,0.039,0.257,0.039,0.413,0.039
			c1.301,0,1.891-0.925,1.891-2.166c0-1.162-0.474-2.066-1.674-2.066c-0.236,0-0.473,0.039-0.63,0.1V16.529z"/>
		<path d="M76.03,16.707c0,5-1.771,7.027-4.292,7.027c-3.012,0-4.192-3.188-4.192-6.83c0-3.623,1.437-6.752,4.369-6.752
			C75.125,10.15,76.03,13.675,76.03,16.707z M70.223,16.943c0,3.012,0.57,4.547,1.615,4.547c1.082,0,1.496-1.969,1.496-4.666
			c0-2.323-0.354-4.43-1.517-4.43C70.793,12.395,70.223,14.088,70.223,16.943z"/>
		<path d="M86.977,23.38c-0.373,0.178-1.102,0.315-2.006,0.315c-3.387,0-5-2.797-5-6.557c0-5,2.775-6.949,5.353-6.949
			c0.906,0,1.535,0.178,1.791,0.354l-0.432,2.166c-0.295-0.138-0.631-0.255-1.201-0.255c-1.457,0-2.775,1.26-2.775,4.547
			c0,3.169,1.201,4.41,2.775,4.41c0.434,0,0.924-0.1,1.24-0.197L86.977,23.38z"/>
		<path d="M93.318,12.691h-2.344v-2.383h7.283v2.383h-2.361v10.885h-2.578V12.691z"/>
		<path d="M109.996,16.707c0,5-1.773,7.027-4.293,7.027c-3.012,0-4.193-3.188-4.193-6.83c0-3.623,1.438-6.752,4.371-6.752
			C109.088,10.15,109.996,13.675,109.996,16.707z M104.188,16.943c0,3.012,0.57,4.547,1.613,4.547c1.084,0,1.498-1.969,1.498-4.666
			c0-2.323-0.355-4.43-1.518-4.43C104.758,12.395,104.188,14.088,104.188,16.943z"/>
		<path d="M121.355,10.31v2.204h-4.213v2.775c0.373-0.078,0.67-0.098,1.043-0.098c1.143,0,2.146,0.354,2.875,0.982
			c0.787,0.689,1.26,1.732,1.26,3.07c0,1.279-0.395,2.304-1.104,3.012c-0.904,0.965-2.322,1.417-4.232,1.417
			c-0.982,0-1.811-0.06-2.4-0.138V10.31H121.355z M117.162,21.568c0.178,0.039,0.354,0.039,0.57,0.039
			c0.609,0,1.104-0.236,1.418-0.63c0.334-0.395,0.492-0.944,0.492-1.536c0-0.609-0.18-1.16-0.514-1.535
			c-0.334-0.394-0.809-0.649-1.379-0.649c-0.215,0-0.412,0.021-0.59,0.062v4.25H117.162z"/>
		<path d="M128.938,20.545l-0.592,3.031h-2.5l2.875-13.269h3.09l2.578,13.269h-2.498l-0.572-3.031H128.938z M131.084,18.537
			l-0.434-2.775c-0.141-0.809-0.314-2.125-0.436-3.013h-0.061c-0.137,0.886-0.334,2.265-0.473,3.032l-0.492,2.756H131.084z"/>
		<path d="M141.381,10.31v5.314h2.697V10.31h2.578v13.269h-2.578v-5.551h-2.697v5.551h-2.578V10.31H141.381z"/>
		<path d="M154.416,10.31v5.769h0.197l2.166-5.769h2.834l-3.051,6.142c1.355,0.512,1.813,1.752,2.186,3.367
			c0.295,1.279,0.512,2.539,0.904,3.76h-2.578c-0.314-0.944-0.512-2.027-0.73-3.071c-0.313-1.556-0.67-2.56-1.73-2.56h-0.197v5.631
			h-2.52V10.31H154.416z"/>
		<path d="M51.043,37.974c0,5-1.771,7.026-4.291,7.026c-3.013,0-4.193-3.188-4.193-6.831c0-3.622,1.438-6.752,4.369-6.752
			C50.137,31.417,51.043,34.939,51.043,37.974z M45.236,38.208c0,3.014,0.571,4.548,1.614,4.548c1.083,0,1.496-1.969,1.496-4.666
			c0-2.321-0.354-4.43-1.516-4.43C45.807,33.66,45.236,35.354,45.236,38.208z"/>
		<path d="M67.269,31.574v5.314h2.696v-5.314h2.58v13.269h-2.58v-5.552h-2.696v5.552h-2.578V31.574H67.269z"/>
		<path d="M94.262,31.574v13.269h-2.578V33.818h-1.969v3.504c0,3.052-0.197,5.729-1.869,7.026c-0.494,0.396-1.123,0.649-1.773,0.649
			l-0.551-2.187c0.316-0.079,0.65-0.235,0.887-0.473c0.768-0.787,0.945-2.204,0.945-4.783v-5.983L94.262,31.574L94.262,31.574z"/>
		<path d="M110.666,41.812l-0.592,3.03h-2.498l2.873-13.27h3.092l2.578,13.27h-2.5l-0.57-3.03H110.666z M112.813,39.804
			l-0.434-2.774c-0.141-0.809-0.316-2.127-0.434-3.014h-0.063c-0.137,0.887-0.334,2.266-0.471,3.031l-0.492,2.757H112.813z"/>
		<path d="M131.873,31.574v2.933c0,2.44-0.156,4.728-0.256,6.104h0.039c0.373-1.144,1.043-2.873,1.438-3.897l1.949-5.138h2.342
			v13.269h-2.264v-2.991c0-2.656,0.098-4.627,0.156-5.965h-0.039c-0.295,1.199-0.885,2.795-1.318,3.896l-1.949,5.06h-2.381V31.574
			H131.873L131.873,31.574z M132.6,28.818c0.061,0.729,0.277,1.121,0.887,1.121c0.531,0,0.848-0.395,0.887-1.121h1.635
			c-0.195,1.692-1.104,2.264-2.541,2.264c-1.338,0-2.381-0.569-2.479-2.264H132.6z"/>
		<path d="M154.279,31.574v5.314h2.697v-5.314h2.576v13.269h-2.576v-5.552h-2.697v5.552h-2.58V31.574H154.279z"/>
	</g>
</g>
</svg>
