<?xml version="1.0" encoding="utf-8"?>
<!-- Generator: Adobe Illustrator 16.0.0, SVG Export Plug-In . SVG Version: 6.00 Build 0)  -->
<!DOCTYPE svg PUBLIC "-//W3C//DTD SVG 1.1//EN" "http://www.w3.org/Graphics/SVG/1.1/DTD/svg11.dtd">
<svg version="1.1" id="Layer_1" xmlns="http://www.w3.org/2000/svg" xmlns:xlink="http://www.w3.org/1999/xlink" x="0px" y="0px"
	 width="58px" height="50px" viewBox="0 0 58 50" enable-background="new 0 0 58 50" xml:space="preserve">
<g>
	<path fill="#0066B3" d="M57.641,5.477c-0.1-0.301-0.201-0.802-0.334-1.503c-0.201-0.802-0.5-1.235-0.969-1.369l1.27-2.505h-0.9
		l-1.035,2.371H55.57V0.1h-0.836v5.377h0.836V3.105h0.102c0.398,0,0.668,0.367,0.834,1.068c0.102,0.668,0.201,1.104,0.301,1.303
		H57.641L57.641,5.477z"/>
	<path fill="#0066B3" d="M50.527,0.1v2.204h-1.27V0.1h-0.869v5.377h0.869V3.105h1.27v2.371h0.867V0.1H50.527z"/>
	<path fill="#0066B3" d="M44.248,0.1h-1.002l-1.201,5.377h0.834l0.301-1.402h1.068l0.268,1.402h0.834L44.248,0.1z M43.713,0.935
		L43.713,0.935l0.434,2.472h-0.869L43.713,0.935z"/>
	<path fill="#0066B3" d="M38.936,0.1h-2.537v5.377c0.4,0.033,0.701,0.033,0.902,0.033c0.701,0,1.268-0.167,1.602-0.534
		c0.27-0.334,0.436-0.733,0.436-1.202c0-0.535-0.166-0.936-0.5-1.236c-0.334-0.267-0.701-0.399-1.17-0.399
		c-0.102,0-0.268,0-0.4,0.033V0.802h1.67V0.1H38.936z M37.5,2.805c0.301,0,0.502,0.134,0.668,0.301
		c0.168,0.2,0.268,0.434,0.268,0.701c0,0.301-0.1,0.534-0.232,0.701c-0.201,0.234-0.4,0.334-0.701,0.334
		c-0.102,0-0.201-0.033-0.234-0.033V2.838L37.5,2.805z"/>
	<g>
		<polygon fill="#ED1C24" points="45.152,7.197 41.76,12.007 43.576,12.007 47.004,7.197 		"/>
		<polygon fill="#ED1C24" points="36.117,20.257 37.965,20.257 42.959,13.142 41.111,13.142 		"/>
		<polygon fill="#ED1C24" points="29.24,30.411 31.018,30.411 36.979,21.859 35.166,21.859 		"/>
		<polygon fill="#ED1C24" points="21.131,42.533 22.938,42.533 29.924,32.248 28.082,32.248 		"/>
	</g>
	<path fill="#0066B3" d="M14.688,0c-1.136,0-1.671,0.937-1.671,2.772c0,1.87,0.502,2.771,1.604,2.771l0,0
		c1.103,0,1.671-0.935,1.671-2.839C16.291,0.935,15.725,0,14.688,0z M13.887,2.771c0-1.336,0.268-2.004,0.769-2.004
		s0.735,0.668,0.735,2.004c0,1.369-0.234,2.037-0.735,2.037S13.887,4.141,13.887,2.771z"/>
	<path fill="#0066B3" d="M10.18,1.637c0-0.501-0.135-0.868-0.435-1.169C9.479,0.199,9.01,0.068,8.375,0.068
		c-0.4,0-0.734,0.033-1.002,0.1v5.311h0.869V3.375h0.234c0.566,0,1.002-0.168,1.302-0.567C10.045,2.505,10.18,2.138,10.18,1.637z
		 M8.242,2.672v-1.87c0.066-0.033,0.167-0.033,0.301-0.033c0.5,0,0.768,0.3,0.768,0.901c0,0.668-0.268,1.002-0.868,1.002H8.242
		L8.242,2.672z"/>
	<path fill="#0066B3" d="M3.199,5.477h0.835V0.1H1.096v5.377H1.93V0.834h1.27V5.477z"/>
	<path fill="#0066B3" d="M31.723,0c-1.137,0-1.703,0.937-1.703,2.772c0,1.87,0.533,2.771,1.604,2.771h0.031
		c1.07,0,1.639-0.935,1.639-2.839C33.291,0.935,32.791,0,31.723,0z M30.887,2.771c0-1.336,0.268-2.004,0.768-2.004
		c0.504,0,0.736,0.668,0.736,2.004c0,1.369-0.232,2.037-0.736,2.037C31.154,4.809,30.887,4.141,30.887,2.771z"/>
	<path fill="#0066B3" d="M27.48,0.867V0.1h-2.771v0.768h0.934v4.609h0.869V0.867H27.48z"/>
	<path fill="#0066B3" d="M19.799,0.668c-0.435,0.501-0.668,1.236-0.668,2.171c0,1.804,0.668,2.672,1.937,2.672
		c0.368,0,0.635-0.033,0.802-0.133l-0.1-0.702c-0.168,0.066-0.334,0.102-0.535,0.102c-0.801,0-1.202-0.635-1.202-1.971
		s0.401-2.004,1.169-2.004c0.2,0,0.4,0,0.534,0.1l0.167-0.734c-0.133-0.065-0.4-0.133-0.701-0.133
		C20.633,0.033,20.199,0.267,19.799,0.668z"/>
	<path fill="#0066B3" d="M31.957,45.257h0.936v4.676h0.867v-5.41h-2.604v2.438c0,1.203-0.102,1.903-0.367,2.171
		c-0.066,0.034-0.201,0.101-0.334,0.167l0.166,0.702c0.234,0,0.436-0.067,0.602-0.234c0.502-0.334,0.734-1.302,0.734-2.872V45.257
		L31.957,45.257z"/>
	<path fill="#0066B3" d="M36.732,45.29h0.936v4.643h0.869V45.29h0.969v-0.769h-2.771v0.769H36.732z"/>
	<path fill="#0066B3" d="M21.635,45.356l0.168-0.734c-0.168-0.101-0.367-0.167-0.701-0.167c-0.568,0-1.036,0.233-1.403,0.635
		c-0.435,0.501-0.668,1.27-0.668,2.204c0,1.771,0.668,2.672,1.972,2.672c0.299,0,0.566-0.033,0.768-0.133l-0.1-0.702
		c-0.201,0.034-0.369,0.066-0.535,0.066c-0.769,0-1.17-0.635-1.17-1.971s0.401-2.004,1.17-2.004
		C21.301,45.223,21.502,45.257,21.635,45.356z"/>
	<path fill="#0066B3" d="M26.713,44.521h-1.002l-1.203,5.41h0.834l0.301-1.402h1.07l0.266,1.402h0.836L26.713,44.521z
		 M25.711,47.829l0.434-2.438h0.066c0.067,0.567,0.135,1.002,0.168,1.202l0.233,1.236H25.711z"/>
	<path fill="#0066B3" d="M15.957,49.932v-5.41H15.09v2.237h-1.271v-2.237h-0.868v5.41h0.868v-2.371h1.271v2.371H15.957z"/>
	<path fill="#0066B3" d="M42.51,44.521v5.41h0.803l0.867-2.304c0.301-0.734,0.502-1.336,0.604-1.704h0.031
		c-0.064,0.568-0.1,1.37-0.1,2.505v1.503h0.768v-5.41h-0.768l-0.869,2.271c-0.4,1.036-0.602,1.604-0.668,1.736l0,0
		c0.033-1.136,0.1-1.971,0.1-2.505v-1.503H42.51z"/>
	<path fill="#0066B3" d="M2.666,47.06l1.268-2.538H3l-1.003,2.404H1.896v-2.404H1.094v5.41h0.803v-2.371h0.101
		c0.4,0,0.634,0.334,0.802,1.068c0.133,0.702,0.267,1.103,0.334,1.303h0.834c-0.033-0.134-0.166-0.635-0.367-1.536
		C3.467,47.662,3.133,47.193,2.666,47.06z"/>
	<path fill="#0066B3" d="M8.275,44.455c-1.135,0-1.737,0.901-1.737,2.771c0,1.837,0.568,2.772,1.638,2.772
		c1.135,0,1.67-0.969,1.67-2.839C9.846,45.356,9.311,44.455,8.275,44.455z M7.475,47.227c-0.034-1.369,0.232-2.037,0.734-2.037
		c0.5,0,0.734,0.668,0.734,2.004c0,1.369-0.234,2.037-0.734,2.037l0,0C7.707,49.23,7.44,48.563,7.475,47.227z"/>
	<path fill="#0066B3" d="M57.541,45.257v-0.734h-2.338v5.41h0.834v-4.676H57.541z"/>
	<g>
		<rect x="55.986" y="13.309" fill="#0066B3" width="0.838" height="29.225"/>
		<polygon fill="#0066B3" points="55.732,7.197 39.301,42.533 40.957,42.533 57.422,7.197 		"/>
		<rect x="51.01" y="24.031" fill="#0066B3" width="0.836" height="18.502"/>
		<rect x="48.908" y="28.606" fill="#0066B3" width="0.834" height="13.927"/>
		<rect x="14.204" y="7.197" fill="#0066B3" width="0.835" height="18.236"/>
		<rect x="3.215" y="7.197" fill="#0066B3" width="0.836" height="29.259"/>
		<rect x="7.391" y="7.197" fill="#0066B3" width="0.836" height="25.083"/>
		<rect x="1.145" y="7.197" fill="#0066B3" width="0.835" height="31.328"/>
		<rect x="31.305" y="7.197" fill="#0066B3" width="0.834" height="1.604"/>
		<polygon fill="#0066B3" points="0,42.533 2.146,42.533 37.482,7.197 35.338,7.197 		"/>
		<rect x="25.66" y="7.197" fill="#0066B3" width="0.835" height="6.681"/>
		<rect x="20.283" y="7.197" fill="#0066B3" width="0.835" height="12.157"/>
		<rect x="44.531" y="37.959" fill="#0066B3" width="0.836" height="4.574"/>
	</g>
	<path fill="#0066B3" d="M50.996,44.521v2.237h-1.305v-2.237h-0.836v5.41h0.836v-2.371h1.305v2.371h0.867v-5.41H50.996z"/>
</g>
</svg>
