<?xml version="1.0" encoding="utf-8"?>
<!-- Generator: Adobe Illustrator 16.0.0, SVG Export Plug-In . SVG Version: 6.00 Build 0)  -->
<!DOCTYPE svg PUBLIC "-//W3C//DTD SVG 1.1//EN" "http://www.w3.org/Graphics/SVG/1.1/DTD/svg11.dtd">
<svg version="1.1" id="Layer_1" xmlns="http://www.w3.org/2000/svg" xmlns:xlink="http://www.w3.org/1999/xlink" x="0px" y="0px"
	 width="255.12px" height="141.73px" viewBox="0 0 255.12 141.73" enable-background="new 0 0 255.12 141.73" xml:space="preserve">
<g>
	<polygon fill="#FFFFFF" points="53.126,61.269 53.126,59.238 51.097,59.239 51.097,61.269 51.097,65.327 49.067,65.327 
		49.067,57.209 45.008,57.209 45.008,63.297 42.979,63.297 42.978,55.179 38.919,55.179 38.919,63.297 36.889,63.297 36.889,45.031 
		32.83,45.031 32.83,67.357 30.8,67.357 30.8,65.327 28.771,65.327 28.771,63.297 24.711,63.297 24.711,67.357 26.741,67.357 
		26.741,69.387 28.771,69.386 28.771,73.445 30.8,73.445 30.8,77.504 32.83,77.504 32.83,81.564 34.86,81.564 34.86,85.623 
		36.394,85.623 36.394,85.623 40.454,85.623 40.454,85.623 42.979,85.623 42.979,85.623 47.038,85.623 47.037,85.623 51.097,85.623 
		51.097,81.564 53.126,81.564 53.126,77.504 53.126,75.476 55.156,75.476 55.156,71.417 55.156,61.269 	"/>
	<g>
		<polygon fill="#C4161C" points="24.711,63.297 26.741,63.297 28.771,63.297 28.771,61.268 26.741,61.268 24.711,61.268 
			22.682,61.268 22.682,63.297 22.682,65.327 22.682,67.357 24.711,67.357 24.711,65.327 		"/>
		<rect x="24.712" y="67.357" fill="#C4161C" width="2.029" height="2.029"/>
		<polygon fill="#C4161C" points="28.771,69.387 26.741,69.386 26.741,71.416 26.741,73.445 28.771,73.445 28.771,71.417 		"/>
		<polygon fill="#C4161C" points="30.8,73.445 28.771,73.445 28.771,75.476 28.771,77.504 30.8,77.505 30.8,75.476 		"/>
		<polygon fill="#C4161C" points="32.83,77.504 30.8,77.505 30.8,79.535 30.8,81.564 32.83,81.564 32.83,79.535 		"/>
		<polygon fill="#C4161C" points="51.097,83.594 51.097,85.623 49.067,85.623 47.038,85.623 45.008,85.623 42.979,85.623 
			40.949,85.623 38.919,85.623 36.89,85.623 34.86,85.623 34.86,83.595 34.859,81.564 32.83,81.564 32.83,83.594 32.83,85.623 
			32.83,87.653 34.86,87.653 36.89,87.653 38.919,87.653 40.949,87.653 42.979,87.653 45.008,87.653 47.037,87.653 49.067,87.653 
			51.097,87.653 53.126,87.653 53.126,85.623 53.126,83.594 53.126,81.564 51.097,81.564 		"/>
		<polygon fill="#C4161C" points="53.126,77.505 53.126,79.535 53.126,81.564 55.156,81.564 55.156,79.535 55.156,77.505 
			55.156,75.476 53.126,75.476 		"/>
		<polygon fill="#C4161C" points="57.186,67.357 57.186,65.327 57.186,63.297 57.186,61.268 55.156,61.268 55.156,63.297 
			55.156,65.327 55.156,67.357 55.156,69.387 55.156,71.417 55.156,73.445 55.156,75.476 57.186,75.476 57.186,73.445 
			57.186,71.417 57.186,69.386 		"/>
		<rect x="53.126" y="59.238" fill="#C4161C" width="2.03" height="2.03"/>
		<polygon fill="#C4161C" points="49.067,61.268 49.067,63.297 49.067,65.327 51.097,65.327 51.097,63.297 51.097,61.268 
			51.097,59.238 53.126,59.239 53.126,57.209 51.097,57.209 49.067,57.209 49.067,59.239 		"/>
		<polygon fill="#C4161C" points="42.979,59.238 42.979,61.268 42.979,63.297 45.008,63.297 45.008,61.268 45.008,59.239 
			45.008,57.209 47.038,57.209 49.067,57.209 49.067,55.179 47.037,55.179 45.008,55.179 42.979,55.179 42.978,57.209 		"/>
		<polygon fill="#C4161C" points="36.889,49.09 36.889,51.119 36.889,53.15 36.889,55.179 36.889,57.209 36.889,59.238 
			36.889,61.268 36.889,63.297 38.919,63.297 38.919,61.268 38.919,59.239 38.919,57.209 38.919,55.179 40.949,55.179 
			42.979,55.179 42.979,53.149 40.949,53.15 38.919,53.15 38.919,51.119 38.919,49.09 38.919,47.061 38.919,45.031 36.889,45.031 
			36.889,47.061 		"/>
		<polygon fill="#C4161C" points="30.8,65.327 30.8,67.357 32.83,67.357 32.83,65.327 32.83,63.297 32.83,61.268 32.83,59.238 
			32.83,57.209 32.83,55.179 32.83,53.15 32.83,51.119 32.83,49.09 32.83,47.061 32.83,45.031 30.8,45.031 30.8,47.06 30.8,49.09 
			30.8,51.119 30.8,53.15 30.8,55.179 30.8,57.209 30.8,59.238 30.8,61.268 30.8,63.297 28.771,63.297 28.771,65.327 		"/>
		<polygon fill="#C4161C" points="36.889,45.031 36.889,43.001 34.86,43.001 32.83,43.001 32.83,45.031 34.86,45.031 		"/>
	</g>
</g>
<g>
	<path d="M73.686,53.31v13.268h-2.579V55.554h-2.638v11.023h-2.579V53.31H73.686z"/>
	<path d="M78.926,53.507c0.728-0.158,1.712-0.256,2.697-0.256c1.535,0,2.736,0.217,3.603,1.024c0.787,0.689,1.142,1.792,1.142,2.914
		c0,1.437-0.433,2.44-1.122,3.189c-0.827,0.866-2.166,1.26-3.229,1.26c-0.177,0-0.354,0-0.512,0v4.941h-2.579V53.507z M81.504,59.53
		c0.118,0.04,0.256,0.04,0.413,0.04c1.3,0,1.89-0.925,1.89-2.166c0-1.162-0.473-2.067-1.673-2.067c-0.236,0-0.473,0.039-0.63,0.099
		V59.53z"/>
	<path d="M98.712,59.708c0,5-1.772,7.028-4.292,7.028c-3.012,0-4.193-3.189-4.193-6.831c0-3.623,1.437-6.752,4.37-6.752
		C97.807,53.152,98.712,56.676,98.712,59.708z M92.905,59.944c0,3.012,0.571,4.547,1.615,4.547c1.083,0,1.496-1.968,1.496-4.666
		c0-2.323-0.354-4.429-1.516-4.429C93.476,55.396,92.905,57.089,92.905,59.944z"/>
	<path d="M109.66,66.381c-0.374,0.177-1.102,0.315-2.007,0.315c-3.386,0-5-2.796-5-6.556c0-5,2.776-6.949,5.354-6.949
		c0.906,0,1.536,0.178,1.792,0.354l-0.433,2.166c-0.295-0.138-0.63-0.255-1.201-0.255c-1.457,0-2.776,1.26-2.776,4.547
		c0,3.169,1.202,4.41,2.776,4.41c0.433,0,0.925-0.099,1.241-0.197L109.66,66.381z"/>
	<path d="M116.001,55.692h-2.343V53.31h7.284v2.382h-2.362v10.886h-2.579V55.692z"/>
	<path d="M132.678,59.708c0,5-1.772,7.028-4.292,7.028c-3.012,0-4.193-3.189-4.193-6.831c0-3.623,1.437-6.752,4.37-6.752
		C131.771,53.152,132.678,56.676,132.678,59.708z M126.87,59.944c0,3.012,0.571,4.547,1.614,4.547c1.083,0,1.497-1.968,1.497-4.666
		c0-2.323-0.354-4.429-1.516-4.429C127.441,55.396,126.87,57.089,126.87,59.944z"/>
	<path d="M144.038,53.31v2.204h-4.212v2.776c0.373-0.078,0.669-0.098,1.043-0.098c1.142,0,2.146,0.354,2.874,0.984
		c0.788,0.689,1.26,1.732,1.26,3.07c0,1.28-0.394,2.304-1.103,3.012c-0.905,0.964-2.323,1.417-4.232,1.417
		c-0.984,0-1.812-0.059-2.401-0.138V53.31H144.038z M139.845,64.569c0.178,0.04,0.354,0.04,0.571,0.04
		c0.61,0,1.103-0.236,1.417-0.63c0.335-0.394,0.492-0.945,0.492-1.536c0-0.61-0.177-1.161-0.511-1.535
		c-0.335-0.394-0.808-0.65-1.379-0.65c-0.216,0-0.413,0.02-0.591,0.06V64.569z"/>
	<path d="M151.62,63.546l-0.591,3.031h-2.5l2.874-13.268h3.091l2.578,13.268h-2.499l-0.571-3.031H151.62z M153.766,61.538
		l-0.433-2.776c-0.139-0.807-0.315-2.125-0.433-3.012h-0.06c-0.138,0.886-0.335,2.264-0.473,3.032l-0.492,2.756H153.766z"/>
	<path d="M164.064,53.31v5.315h2.697V53.31h2.578v13.268h-2.578v-5.551h-2.697v5.551h-2.579V53.31H164.064z"/>
	<path d="M177.099,53.31v5.768h0.197l2.166-5.768h2.834l-3.051,6.142c1.358,0.511,1.812,1.752,2.185,3.367
		c0.296,1.279,0.512,2.539,0.905,3.759h-2.578c-0.315-0.944-0.512-2.027-0.729-3.071c-0.314-1.555-0.67-2.559-1.732-2.559h-0.197
		v5.63h-2.52V53.31H177.099z"/>
	<path d="M73.726,80.974c0,5-1.771,7.027-4.292,7.027c-3.012,0-4.193-3.188-4.193-6.831c0-3.622,1.437-6.752,4.37-6.752
		C72.82,74.418,73.726,77.941,73.726,80.974z M67.918,81.209c0,3.013,0.571,4.548,1.614,4.548c1.083,0,1.496-1.969,1.496-4.666
		c0-2.322-0.354-4.429-1.516-4.429C68.489,76.662,67.918,78.355,67.918,81.209z"/>
	<path d="M89.951,74.575v5.315h2.697v-5.315h2.579v13.269h-2.579v-5.552h-2.697v5.552h-2.578V74.575H89.951z"/>
	<path d="M116.945,74.575v13.269h-2.578V76.819h-1.969v3.504c0,3.052-0.197,5.729-1.87,7.027c-0.493,0.395-1.123,0.65-1.772,0.65
		l-0.551-2.186c0.315-0.079,0.649-0.235,0.886-0.472c0.768-0.788,0.945-2.205,0.945-4.784v-5.984H116.945z"/>
	<path d="M133.349,84.813l-0.591,3.031h-2.499l2.873-13.269h3.092l2.578,13.269h-2.5l-0.571-3.031H133.349z M135.495,82.804
		l-0.434-2.775c-0.139-0.808-0.315-2.126-0.433-3.013h-0.06c-0.138,0.887-0.334,2.265-0.472,3.032l-0.492,2.756H135.495z"/>
	<path d="M154.555,74.575v2.933c0,2.441-0.156,4.726-0.255,6.103h0.039c0.374-1.142,1.043-2.873,1.437-3.897l1.949-5.138h2.343
		v13.269h-2.264v-2.992c0-2.657,0.098-4.627,0.157-5.965h-0.039c-0.296,1.2-0.886,2.795-1.319,3.897l-1.949,5.06h-2.382V74.575
		H154.555z M155.283,71.819c0.06,0.729,0.276,1.122,0.887,1.122c0.531,0,0.847-0.394,0.886-1.122h1.634
		c-0.197,1.693-1.103,2.264-2.54,2.264c-1.338,0-2.381-0.57-2.479-2.264H155.283z"/>
	<path d="M176.962,74.575v5.315h2.697v-5.315h2.578v13.269h-2.578v-5.552h-2.697v5.552h-2.579V74.575H176.962z"/>
</g>
</svg>
