<?xml version="1.0" encoding="utf-8"?>
<!-- Generator: Adobe Illustrator 16.0.0, SVG Export Plug-In . SVG Version: 6.00 Build 0)  -->
<!DOCTYPE svg PUBLIC "-//W3C//DTD SVG 1.1//EN" "http://www.w3.org/Graphics/SVG/1.1/DTD/svg11.dtd">
<svg version="1.1" id="Layer_1" xmlns="http://www.w3.org/2000/svg" xmlns:xlink="http://www.w3.org/1999/xlink" x="0px" y="0px"
	 width="595.275px" height="841.89px" viewBox="0 0 595.275 841.89" enable-background="new 0 0 595.275 841.89"
	 xml:space="preserve">
<path fill="#0066B3" d="M323.801,447c-0.301-0.9-0.601-2.4-1-4.5c-0.601-2.4-1.5-3.7-2.9-4.1l3.8-7.5H321l-3.1,7.1H317.6v-7.1h-2.5
	V447h2.5v-7.1h0.301c1.199,0,2,1.1,2.5,3.199c0.3,2,0.6,3.301,0.9,3.9H323.801z"/>
<path fill="#0066B3" d="M302.5,430.9v6.6h-3.8v-6.6h-2.6V447h2.6v-7.1h3.8v7.1h2.6v-16.1H302.5z"/>
<path fill="#0066B3" d="M283.7,430.9h-3l-3.6,16.1h2.5l0.9-4.2h3.2l0.8,4.2h2.5L283.7,430.9z M282.1,433.4L282.1,433.4l1.3,7.399
	h-2.6L282.1,433.4z"/>
<path fill="#ED1C24" stroke="#ED1C24" stroke-width="1.5" d="M290.5,452.9h-3.7l-9.1,12.899h3.6L290.5,452.9z"/>
<path fill="#0066B3" d="M267.8,430.9h-7.6V447c1.2,0.1,2.1,0.1,2.7,0.1c2.1,0,3.8-0.5,4.8-1.6c0.8-1,1.3-2.2,1.3-3.6
	c0-1.601-0.5-2.801-1.5-3.701c-1-0.799-2.1-1.199-3.5-1.199c-0.3,0-0.8,0-1.2,0.1V433h5V430.9z M263.5,439c0.9,0,1.5,0.4,2,0.9
	c0.5,0.6,0.8,1.299,0.8,2.1c0,0.9-0.3,1.6-0.7,2.1c-0.6,0.7-1.2,1-2.1,1c-0.3,0-0.6-0.1-0.7-0.1v-5.9L263.5,439z"/>
<path fill="#ED1C24" stroke="#ED1C24" stroke-width="1.5" d="M278.4,470.699h-3.7L260.8,490.5h3.7L278.4,470.699z"/>
<path fill="#ED1C24" stroke="#ED1C24" stroke-width="1.5" d="M256.9,496.8L240.2,520.9h3.5l16.8-24.101H256.9z"/>
<path fill="#ED1C24" stroke="#ED1C24" stroke-width="1.5" d="M235.7,527.9l-19.8,29.299h3.6l19.9-29.299H235.7z"/>
<path fill="#0066B3" stroke="#0066B3" stroke-width="1.5" d="M320.6,471.199h-1v86h1V471.199z"/>
<path fill="#0066B3" stroke="#0066B3" stroke-width="1.5" d="M321.966,452.9h-3.4l-48.5,104.299h3.3L321.966,452.9z"/>
<path fill="#0066B3" stroke="#0066B3" stroke-width="1.5" d="M305.7,503.3h-1v53.899h1V503.3z"/>
<path fill="#0066B3" stroke="#0066B3" stroke-width="1.5" d="M299.4,517h-1v40.199h1V517z"/>
<path fill="#0066B3" d="M195.2,430.6c-3.4,0-5,2.801-5,8.301c0,5.6,1.5,8.299,4.8,8.299l0,0c3.3,0,5-2.799,5-8.5
	C200,433.4,198.3,430.6,195.2,430.6z M192.8,438.9c0-4,0.8-6,2.3-6s2.2,2,2.2,6c0,4.1-0.7,6.1-2.2,6.1S192.8,443,192.8,438.9z"/>
<path fill="#0066B3" d="M181.7,435.5c0-1.5-0.4-2.6-1.3-3.5c-0.8-0.801-2.2-1.2-4.1-1.2c-1.2,0-2.2,0.101-3,0.3V447h2.6v-6.301h0.7
	c1.7,0,3-0.5,3.9-1.699C181.3,438.1,181.7,437,181.7,435.5z M175.9,438.6V433c0.2-0.1,0.5-0.1,0.9-0.1c1.5,0,2.3,0.899,2.3,2.699
	c0,2-0.8,3-2.6,3H175.9z"/>
<path fill="#0066B3" stroke="#0066B3" stroke-width="1.5" d="M195.5,452.9h-1V506h1V452.9z"/>
<path fill="#0066B3" d="M160.8,447h2.5v-16.1h-8.8V447h2.5v-13.9h3.8V447z"/>
<path fill="#0066B3" stroke="#0066B3" stroke-width="1.5" d="M162.6,452.9h-1V539h1V452.9z"/>
<path fill="#0066B3" stroke="#0066B3" stroke-width="1.5" d="M175.1,452.9h-1v73.6h1V452.9z"/>
<path fill="#0066B3" stroke="#0066B3" stroke-width="1.5" d="M156.4,452.9h-1v92.299h1V452.9z"/>
<path fill="#0066B3" d="M246.2,430.6c-3.4,0-5.1,2.801-5.1,8.301c0,5.6,1.6,8.299,4.8,8.299h0.1c3.2,0,4.9-2.799,4.9-8.5
	C250.9,433.4,249.4,430.6,246.2,430.6z M243.7,438.9c0-4,0.8-6,2.3-6s2.2,2,2.2,6c0,4.1-0.7,6.1-2.2,6.1S243.7,443,243.7,438.9z"/>
<path fill="#0066B3" stroke="#0066B3" stroke-width="1.5" d="M246.7,452.9h-1v3.299h1V452.9z"/>
<path fill="#0066B3" stroke="#0066B3" stroke-width="1.5" d="M261.635,452.9h-4.3l-104.3,104.299h4.3L261.635,452.9z"/>
<path fill="#0066B3" d="M233.5,433.199V430.9h-8.3v2.299h2.8V447h2.6v-13.801H233.5z"/>
<path fill="#0066B3" stroke="#0066B3" stroke-width="1.5" d="M229.8,452.9h-1v18.5h1V452.9z"/>
<path fill="#0066B3" d="M210.5,432.6c-1.3,1.5-2,3.7-2,6.5c0,5.4,2,8,5.8,8c1.1,0,1.9-0.1,2.4-0.4l-0.3-2.1
	c-0.5,0.2-1,0.301-1.6,0.301c-2.4,0-3.6-1.9-3.6-5.9s1.2-6,3.5-6c0.6,0,1.2,0,1.6,0.3l0.5-2.2c-0.4-0.199-1.2-0.4-2.1-0.4
	C213,430.699,211.7,431.4,210.5,432.6z"/>
<path fill="#0066B3" stroke="#0066B3" stroke-width="1.5" d="M213.7,452.9h-1V487.8h1V452.9z"/>
<path fill="#0066B3" d="M246.9,566.1h2.8v14h2.6V563.9h-7.8v7.299c0,3.601-0.3,5.701-1.1,6.5c-0.2,0.101-0.6,0.301-1,0.5l0.5,2.101
	c0.7,0,1.3-0.2,1.8-0.7c1.5-1,2.2-3.9,2.2-8.6V566.1z"/>
<path fill="#0066B3" d="M261.2,566.199h2.8v13.9h2.6v-13.9h2.9V563.9h-8.3V566.199z"/>
<path fill="#0066B3" d="M216,566.4l0.5-2.201c-0.5-0.299-1.1-0.5-2.1-0.5c-1.7,0-3.1,0.701-4.2,1.9c-1.3,1.5-2,3.801-2,6.6
	c0,5.301,2,8,5.9,8c0.9,0,1.7-0.1,2.3-0.399l-0.3-2.101c-0.6,0.101-1.1,0.201-1.6,0.201c-2.3,0-3.5-1.9-3.5-5.9s1.2-6,3.5-6
	C215,566,215.6,566.1,216,566.4z"/>
<path fill="#0066B3" d="M231.2,563.9h-3l-3.6,16.199h2.5l0.9-4.199h3.2l0.8,4.199h2.5L231.2,563.9z M228.2,573.8l1.3-7.3h0.2
	c0.2,1.699,0.4,3,0.5,3.6l0.7,3.7H228.2z"/>
<path fill="#0066B3" d="M199,580.1V563.9h-2.6v6.699h-3.8V563.9H190V580.1h2.6V573h3.8v7.1H199z"/>
<path fill="#0066B3" d="M278.5,563.9V580.1h2.4l2.6-6.9c0.9-2.199,1.5-4,1.8-5.1h0.1c-0.2,1.7-0.3,4.1-0.3,7.5v4.5h2.3V563.9h-2.3
	l-2.6,6.799c-1.2,3.101-1.8,4.801-2,5.201l0,0c0.1-3.4,0.3-5.9,0.3-7.5v-4.5H278.5z"/>
<path fill="#0066B3" d="M159.2,571.5l3.8-7.6h-2.8l-3,7.199h-0.3V563.9h-2.4V580.1h2.4V573h0.3c1.2,0,1.9,1,2.4,3.199
	c0.4,2.101,0.8,3.301,1,3.9h2.5c-0.1-0.4-0.5-1.9-1.1-4.6C161.6,573.3,160.6,571.9,159.2,571.5z"/>
<path fill="#0066B3" d="M176,563.699c-3.4,0-5.2,2.701-5.2,8.301c0,5.5,1.7,8.3,4.9,8.3c3.4,0,5-2.899,5-8.5
	C180.7,566.4,179.1,563.699,176,563.699z M173.6,572c-0.1-4.1,0.7-6.1,2.2-6.1s2.2,2,2.2,6c0,4.1-0.7,6.1-2.2,6.1l0,0
	C174.3,578,173.5,576,173.6,572z"/>
<path fill="#0066B3" d="M323.5,566.1V563.9h-7V580.1h2.5v-14H323.5z"/>
<path fill="#0066B3" stroke="#0066B3" stroke-width="1.5" d="M286.3,545h-1v12.199h1V545z"/>
<path fill="#0066B3" d="M303.9,563.9v6.699H300V563.9h-2.5V580.1h2.5V573h3.9v7.1h2.6V563.9H303.9z"/>
</svg>
