<?xml version="1.0" encoding="utf-8"?>
<!-- Generator: Adobe Illustrator 16.0.0, SVG Export Plug-In . SVG Version: 6.00 Build 0)  -->
<!DOCTYPE svg PUBLIC "-//W3C//DTD SVG 1.1//EN" "http://www.w3.org/Graphics/SVG/1.1/DTD/svg11.dtd">
<svg version="1.1" id="Layer_1" xmlns="http://www.w3.org/2000/svg" xmlns:xlink="http://www.w3.org/1999/xlink" x="0px" y="0px"
	 width="24px" height="24px" viewBox="0 0 24 24" enable-background="new 0 0 24 24" xml:space="preserve">
<g>
	<g>
		<linearGradient id="SVGID_1_" gradientUnits="userSpaceOnUse" x1="9.7363" y1="12.2646" x2="4.8998" y2="17.1011">
			<stop  offset="0" style="stop-color:#00C200"/>
			<stop  offset="1" style="stop-color:#009600"/>
		</linearGradient>
		<polygon fill="url(#SVGID_1_)" points="4.836,7.365 0,12.201 9.799,22 9.799,12.328 		"/>
	</g>
	<g>
		<linearGradient id="SVGID_2_" gradientUnits="userSpaceOnUse" x1="12.064" y1="10.064" x2="16.8998" y2="14.8998">
			<stop  offset="0" style="stop-color:#00C200"/>
			<stop  offset="1" style="stop-color:#009600"/>
		</linearGradient>
		<polygon fill="url(#SVGID_2_)" points="19.164,2.963 9.799,12.328 9.799,22 24,7.799 		"/>
	</g>
	<g>
		<path fill="#009600" d="M19.164,4.535l3.265,3.264L9.799,20.428l-8.227-8.227l3.264-3.265l4.177,4.177l0.786,0.785l0.786-0.785
			L19.164,4.535 M19.164,2.963l-9.365,9.365L4.836,7.365L0,12.201L9.799,22L24,7.799L19.164,2.963L19.164,2.963z"/>
	</g>
</g>
</svg>
